<svg xmlns="http://www.w3.org/2000/svg" viewBox="0 0 96 96" role="img" aria-labelledby="title desc">
  <title id="title">Logo CONGOEMPLOI</title>
  <desc id="desc">Drapeau de la Republique du Congo avec une silhouette de l'Afrique au centre</desc>
  <defs>
    <clipPath id="badge">
      <rect x="8" y="8" width="80" height="80" rx="20"/>
    </clipPath>
    <filter id="shadow" x="-20%" y="-20%" width="140%" height="140%">
      <feDropShadow dx="0" dy="5" stdDeviation="6" flood-color="#0f172a" flood-opacity="0.18"/>
    </filter>
  </defs>
  <rect x="8" y="8" width="80" height="80" rx="20" fill="#fff" filter="url(#shadow)"/>
  <g clip-path="url(#badge)">
    <polygon points="8,8 88,8 8,88" fill="#009543"/>
    <polygon points="88,8 88,88 8,88" fill="#dc241f"/>
    <polygon points="-6,88 88,-6 102,8 8,102" fill="#fbde4a"/>
  </g>
  <rect x="8.5" y="8.5" width="79" height="79" rx="19.5" fill="none" stroke="#e2e8f0"/>
  <path
    d="M48.4 19.7c-2.9.3-5.6 1.2-7.8 2.9-2.1 1.6-3.2 3.6-4.2 6.2-.7 1.8-2.1 2.5-3.9 3.3-1.8.8-3.6 2.1-4.1 4.3-.5 2.2.8 4 2.6 5.2 1.2.8 1.9 1.8 2.1 3.3.3 2.2 1.2 3.8 3.2 5 .9.5 1.5 1.1 1.8 2.1.4 1.6-.2 3.5.2 5.1.4 1.7 2.1 2.6 3.4 3.6 1.8 1.4 2.6 3.4 3.2 5.5.6 2.2 1.4 4.6 3.4 6 2.2 1.5 5.6 1.2 7.4-.8 1.5-1.7 1.5-4.2 2.1-6.3.6-2.1 2.1-3.7 3.5-5.3 1.5-1.7 2.9-3.6 2.8-6-.1-2.8-2.6-4-4.3-5.8-1.3-1.3-1.4-2.6-.8-4.3.6-1.7 1.4-3.3.9-5.1-.6-2.1-2.7-3.2-4.6-3.8-1.7-.6-2.8-1.4-3.3-3.2-.4-1.7-.1-3.6-1-5.2-.8-1.5-2.7-2.1-4.4-1.8Z"
    fill="#0f172a"
    opacity="0.93"
  />
  <path d="M41 28c1.8-1.6 4.3-2.4 7.4-2.4" fill="none" stroke="#fff" stroke-width="3" stroke-linecap="round" opacity="0.9"/>
  <circle cx="58" cy="51" r="3.5" fill="#fbde4a" stroke="#fff" stroke-width="1.5"/>
</svg>
